
<!-- Generator: visioncortex VTracer 0.6.4 -->
<svg version="1.1" xmlns="http://www.w3.org/2000/svg" viewBox="0 0 1088 960" preserveAspectRatio="xMidYMid meet">
<path d="M0 0 C359.04 0 718.08 0 1088 0 C1088 316.8 1088 633.6 1088 960 C728.96 960 369.92 960 0 960 C0 643.2 0 326.4 0 0 Z " fill="#FAFAFA" transform="translate(0,0)"/>
<path d="M0 0 C12.993 7.238 17.748 22.969 21.708 36.361 C24.917 47.996 27.484 59.648 29.152 71.594 C29.268 72.391 29.384 73.189 29.503 74.011 C30.068 77.909 30.59 81.802 31.026 85.717 C32.391 96.325 36.013 102.192 43.432 109.777 C46.611 113.129 49.241 116.96 51.957 120.688 C52.849 121.906 52.849 121.906 53.759 123.15 C58.462 129.64 62.725 136.265 66.77 143.188 C67.575 144.514 68.382 145.84 69.191 147.164 C73.534 154.327 77.605 161.559 81.207 169.125 C81.525 169.786 81.843 170.447 82.17 171.128 C84.578 176.331 86.231 181.671 87.77 187.188 C88.36 186.95 88.95 186.713 89.558 186.469 C92.232 185.395 94.907 184.323 97.582 183.25 C98.511 182.877 99.44 182.504 100.396 182.119 C101.289 181.761 102.182 181.404 103.102 181.035 C103.924 180.705 104.746 180.375 105.593 180.035 C108.883 178.754 111.443 178.067 114.957 178.125 C116.215 178.146 117.473 178.166 118.77 178.188 C119.1 179.837 119.43 181.488 119.77 183.188 C116.725 185.698 113.825 187.093 110.129 188.449 C109.059 188.846 107.989 189.242 106.887 189.65 C105.776 190.055 104.664 190.459 103.52 190.875 C102.393 191.291 101.266 191.706 100.105 192.135 C97.329 193.158 94.55 194.176 91.77 195.188 C91.902 195.817 92.035 196.446 92.172 197.094 C93.277 202.45 94.166 207.752 94.77 213.188 C95.439 213.097 96.108 213.006 96.798 212.912 C99.892 212.496 102.987 212.092 106.082 211.688 C107.135 211.544 108.187 211.401 109.271 211.254 C123.292 209.442 123.292 209.442 129.77 210.188 C130.43 210.847 131.09 211.507 131.77 212.188 C131.707 214.687 131.707 214.687 130.77 217.188 C127.308 218.915 124.026 219.575 120.207 220.039 C119.163 220.168 118.119 220.297 117.043 220.43 C115.963 220.556 114.883 220.682 113.77 220.812 C112.689 220.947 111.609 221.081 110.496 221.219 C105.889 221.776 101.416 222.267 96.77 222.188 C96.935 223.446 97.1 224.704 97.27 226 C97.88 231.402 97.861 236.758 97.77 242.188 C98.569 242.225 99.368 242.262 100.191 242.301 C120.073 243.491 120.073 243.491 124.77 248.188 C124.395 250.813 124.395 250.813 123.77 253.188 C120.089 254.113 117.398 254.161 113.688 253.41 C112.756 253.226 111.825 253.043 110.865 252.854 C109.426 252.555 109.426 252.555 107.957 252.25 C106.978 252.055 105.999 251.859 104.99 251.658 C102.581 251.176 100.175 250.686 97.77 250.188 C96.12 265.113 96.12 265.113 101.582 278.375 C102.848 279.753 104.113 281.13 105.383 282.504 C108.248 285.982 110.362 289.967 112.582 293.875 C113.037 294.66 113.493 295.444 113.962 296.253 C121.77 309.912 121.77 309.912 121.77 314.188 C122.531 313.66 122.531 313.66 123.307 313.121 C137.98 302.965 152.344 293.286 168.77 286.188 C169.762 285.751 170.755 285.314 171.777 284.863 C178.904 281.97 186.267 280.426 193.645 283.312 C198.209 287.34 201.267 291.655 203.77 297.188 C205.125 296.293 206.479 295.397 207.832 294.5 C208.654 293.957 209.477 293.415 210.324 292.855 C212.441 291.412 214.441 289.89 216.457 288.312 C220.078 285.989 221.574 285.458 225.77 286.188 C229.973 288.045 231.721 290.129 233.77 294.188 C234.981 303.35 233.325 313.117 232.527 322.301 C232.397 323.843 232.267 325.385 232.138 326.927 C231.798 330.967 231.452 335.007 231.105 339.047 C230.759 343.084 230.419 347.121 230.078 351.158 C228.669 367.837 227.23 384.513 225.77 401.188 C226.707 401.481 227.645 401.774 228.612 402.076 C239.142 405.781 245.55 416.653 250.238 426.168 C257.647 442.817 257.847 461.804 252.77 479.188 C252.404 480.487 252.404 480.487 252.031 481.812 C250.171 487.314 247.172 491.49 243.617 495.996 C243.151 496.594 242.685 497.192 242.205 497.807 C241.064 499.271 239.917 500.729 238.77 502.188 C262.888 500.939 286.955 499.05 311.026 497.119 C314.408 496.847 317.79 496.578 321.172 496.309 C323.106 496.155 323.106 496.155 325.079 495.998 C333.462 495.341 341.841 494.798 350.24 494.418 C353.793 494.186 357.249 493.712 360.77 493.188 C365.056 492.768 369.35 492.453 373.645 492.125 C375.344 491.989 375.344 491.989 377.078 491.85 C396.117 490.383 396.117 490.383 401.77 495.188 C403.339 498.326 403.122 500.726 402.77 504.188 C400.159 507.348 397.945 509.887 393.771 510.464 C392.944 510.535 392.118 510.607 391.266 510.681 C390.315 510.765 389.365 510.849 388.385 510.935 C387.336 511.024 386.288 511.112 385.207 511.203 C384.101 511.299 382.996 511.395 381.857 511.494 C378.161 511.813 374.466 512.126 370.77 512.438 C368.864 512.6 368.864 512.6 366.92 512.766 C338.889 515.16 310.837 517.273 282.782 519.359 C268.241 520.444 253.706 521.603 239.176 522.82 C238.169 522.904 237.162 522.988 236.125 523.074 C234.159 523.238 232.193 523.405 230.227 523.574 C224.383 524.055 218.633 524.272 212.77 524.188 C212.804 525.473 212.804 525.473 212.84 526.785 C212.867 528.5 212.867 528.5 212.895 530.25 C212.918 531.375 212.941 532.501 212.965 533.66 C212.416 543.579 208.18 547.444 201.145 554.188 C200.267 555.051 199.389 555.915 198.484 556.805 C194.758 560.448 190.995 564.003 187.043 567.4 C182.242 571.582 177.779 576.071 173.301 580.594 C172.421 581.477 171.541 582.361 170.635 583.271 C167.844 586.074 165.056 588.88 162.27 591.688 C158.596 595.389 154.918 599.086 151.238 602.781 C150.408 603.62 149.577 604.459 148.722 605.323 C144.485 609.577 140.168 613.639 135.616 617.553 C132.701 620.133 130.036 622.931 127.355 625.75 C126.17 626.972 124.984 628.194 123.797 629.414 C121.972 631.295 120.152 633.179 118.349 635.081 C106.209 647.855 93.736 656.102 75.551 657.421 C66.793 657.588 59.461 656.141 51.145 653.5 C48.688 652.758 46.231 652.018 43.773 651.281 C42.583 650.92 41.392 650.559 40.165 650.188 C35.503 648.814 30.806 647.634 26.082 646.5 C20.174 645.068 14.337 643.514 8.52 641.75 C-0.431 639.04 -9.497 636.83 -18.574 634.59 C-24.803 633.052 -31.004 631.427 -37.195 629.741 C-39.56 629.098 -41.927 628.459 -44.293 627.82 C-53.438 625.344 -62.565 622.817 -71.668 620.188 C-83.917 616.659 -96.256 613.487 -108.604 610.323 C-133.144 604.033 -133.144 604.033 -143.2 600.961 C-146.87 599.847 -150.545 598.847 -154.273 597.945 C-155.558 597.629 -155.558 597.629 -156.869 597.307 C-158.514 596.907 -160.163 596.52 -161.814 596.15 C-167.146 594.845 -170.342 593.106 -174.23 589.188 C-175.211 586.246 -175.347 584.362 -175.328 581.301 C-175.325 580.363 -175.322 579.425 -175.318 578.459 C-175.31 577.483 -175.302 576.506 -175.293 575.5 C-175.288 574.512 -175.284 573.524 -175.279 572.506 C-175.268 570.066 -175.251 567.627 -175.23 565.188 C-176.677 565.428 -176.677 565.428 -178.153 565.673 C-182.594 566.303 -186.996 566.385 -191.477 566.426 C-192.357 566.435 -193.238 566.445 -194.145 566.455 C-196.986 566.479 -199.827 566.492 -202.668 566.5 C-203.631 566.504 -204.594 566.507 -205.587 566.511 C-220.79 566.534 -236.23 566.289 -250.881 561.667 C-254.182 560.993 -257.444 561.023 -260.799 561.038 C-261.547 561.04 -262.295 561.043 -263.066 561.045 C-271.789 561.128 -280.449 561.841 -289.137 562.578 C-290.93 562.725 -292.723 562.871 -294.517 563.016 C-298.3 563.324 -302.084 563.636 -305.867 563.951 C-314.79 564.693 -323.715 565.413 -332.64 566.134 C-334.625 566.295 -336.61 566.455 -338.595 566.616 C-355.571 567.992 -372.551 569.27 -389.543 570.438 C-390.67 570.515 -391.798 570.593 -392.959 570.673 C-399.363 571.114 -405.766 571.549 -412.17 571.981 C-420.214 572.524 -428.256 573.071 -436.299 573.625 C-438.897 573.803 -441.495 573.976 -444.093 574.149 C-451.952 574.682 -459.783 575.323 -467.617 576.148 C-476.771 577.104 -485.935 577.757 -495.117 578.369 C-505.657 579.073 -516.192 579.838 -526.727 580.625 C-528.447 580.753 -530.166 580.881 -531.886 581.009 C-538.909 581.533 -545.931 582.058 -552.953 582.583 C-558.169 582.973 -563.385 583.362 -568.602 583.75 C-569.444 583.813 -570.286 583.875 -571.153 583.94 C-579.822 584.585 -588.491 585.216 -597.165 585.785 C-597.861 585.831 -598.558 585.877 -599.276 585.924 C-602.493 586.134 -605.709 586.34 -608.926 586.541 C-614.732 586.912 -620.466 587.402 -626.23 588.188 C-635.949 588.956 -635.949 588.956 -640.355 586.312 C-643.236 583.048 -643.459 580.67 -643.852 576.355 C-642.83 572.789 -640.342 570.939 -637.23 569.188 C-634.31 568.335 -631.446 568.08 -628.418 567.875 C-627.186 567.768 -627.186 567.768 -625.928 567.659 C-617.7 567.008 -609.477 566.997 -601.23 567.188 C-601.56 566.528 -601.89 565.867 -602.23 565.188 C-602.51 560.36 -602.476 555.522 -602.48 550.688 C-602.481 549.982 -602.482 549.276 -602.483 548.549 C-602.466 537.514 -601.916 526.928 -599.23 516.188 C-598.973 515.135 -598.973 515.135 -598.71 514.061 C-592.956 491.209 -582.171 467.895 -562.23 454.188 C-551.868 448.555 -542.177 446.48 -530.605 449.438 C-519.552 452.774 -512.421 457.593 -506.527 467.59 C-502.006 476.647 -501.625 487.561 -504 497.363 C-505.524 501.171 -507.42 504.704 -509.384 508.3 C-510.692 510.697 -511.995 513.097 -513.293 515.5 C-513.733 516.311 -514.173 517.122 -514.626 517.957 C-518.441 525.178 -520.629 532.189 -522.23 540.188 C-522.424 540.998 -522.617 541.809 -522.816 542.645 C-523.355 545.955 -523.324 549.148 -523.293 552.5 C-523.284 553.754 -523.275 555.009 -523.266 556.301 C-523.254 557.253 -523.242 558.206 -523.23 559.188 C-512.41 559.478 -501.792 558.866 -491.014 557.899 C-485.39 557.401 -479.877 557.079 -474.23 557.188 C-474.371 556.269 -474.512 555.351 -474.657 554.405 C-475.938 545.557 -476.538 536.951 -476.531 527.996 C-476.536 526.69 -476.54 525.384 -476.544 524.039 C-476.552 521.288 -476.551 518.538 -476.546 515.787 C-476.542 513.039 -476.548 510.291 -476.567 507.543 C-476.737 481.859 -474.911 456.592 -470.48 431.25 C-470.355 430.514 -470.229 429.778 -470.1 429.02 C-463.05 387.817 -452.186 346.552 -436.289 307.832 C-434.645 303.726 -433.122 299.574 -431.6 295.422 C-416.762 255.369 -397.105 216.804 -375.23 180.188 C-374.645 179.202 -374.059 178.216 -373.456 177.201 C-371.701 174.254 -369.937 171.313 -368.168 168.375 C-367.592 167.414 -367.015 166.453 -366.422 165.463 C-363.718 161.019 -360.961 156.73 -357.777 152.613 C-347.863 139.673 -344.163 126.144 -340.149 110.632 C-338.288 103.653 -335.855 96.911 -333.23 90.188 C-332.906 89.355 -332.582 88.523 -332.248 87.666 C-309.81 30.592 -309.81 30.592 -289.547 18.188 C-284.61 16.056 -279.991 16.35 -274.914 17.891 C-265.579 21.722 -257.936 27.942 -250.918 35.062 C-250.185 35.801 -249.452 36.54 -248.698 37.302 C-238.432 47.859 -230.216 59.865 -222.23 72.188 C-221.575 71.977 -220.919 71.766 -220.244 71.548 C-201.744 65.665 -183.37 61.353 -164.23 58.188 C-163.356 58.041 -162.481 57.894 -161.58 57.742 C-137.753 53.943 -112.29 55.361 -88.492 58.531 C-86.738 58.751 -84.985 58.97 -83.23 59.188 C-82.095 59.334 -80.959 59.481 -79.789 59.633 C-76.99 59.399 -76.99 59.399 -74.879 56.836 C-74.129 55.756 -73.378 54.675 -72.605 53.562 C-71.734 52.356 -70.859 51.151 -69.98 49.949 C-69.529 49.325 -69.078 48.7 -68.613 48.056 C-57.811 33.458 -44.632 20.037 -30.293 8.938 C-29.62 8.413 -28.947 7.888 -28.253 7.347 C-19.959 1.138 -10.444 -3.804 0 0 Z " fill="#F9F9F9" transform="translate(665.23046875,104.8125)"/>
<path d="M0 0 C12.993 7.238 17.748 22.969 21.708 36.361 C24.917 47.996 27.484 59.648 29.152 71.594 C29.268 72.391 29.384 73.189 29.503 74.011 C30.068 77.909 30.59 81.802 31.026 85.717 C32.391 96.325 36.013 102.192 43.432 109.777 C46.611 113.129 49.241 116.96 51.957 120.688 C52.849 121.906 52.849 121.906 53.759 123.15 C58.462 129.64 62.725 136.265 66.77 143.188 C67.575 144.514 68.382 145.84 69.191 147.164 C73.534 154.327 77.605 161.559 81.207 169.125 C81.525 169.786 81.843 170.447 82.17 171.128 C84.578 176.331 86.231 181.671 87.77 187.188 C88.36 186.95 88.95 186.713 89.558 186.469 C92.232 185.395 94.907 184.323 97.582 183.25 C98.511 182.877 99.44 182.504 100.396 182.119 C101.289 181.761 102.182 181.404 103.102 181.035 C103.924 180.705 104.746 180.375 105.593 180.035 C108.883 178.754 111.443 178.067 114.957 178.125 C116.215 178.146 117.473 178.166 118.77 178.188 C119.1 179.837 119.43 181.488 119.77 183.188 C116.725 185.698 113.825 187.093 110.129 188.449 C109.059 188.846 107.989 189.242 106.887 189.65 C105.776 190.055 104.664 190.459 103.52 190.875 C102.393 191.291 101.266 191.706 100.105 192.135 C97.329 193.158 94.55 194.176 91.77 195.188 C91.902 195.817 92.035 196.446 92.172 197.094 C93.277 202.45 94.166 207.752 94.77 213.188 C95.439 213.097 96.108 213.006 96.798 212.912 C99.892 212.496 102.987 212.092 106.082 211.688 C107.135 211.544 108.187 211.401 109.271 211.254 C123.292 209.442 123.292 209.442 129.77 210.188 C130.43 210.847 131.09 211.507 131.77 212.188 C131.707 214.687 131.707 214.687 130.77 217.188 C127.308 218.915 124.026 219.575 120.207 220.039 C119.163 220.168 118.119 220.297 117.043 220.43 C115.963 220.556 114.883 220.682 113.77 220.812 C112.689 220.947 111.609 221.081 110.496 221.219 C105.889 221.776 101.416 222.267 96.77 222.188 C96.935 223.446 97.1 224.704 97.27 226 C97.88 231.402 97.861 236.758 97.77 242.188 C98.569 242.225 99.368 242.262 100.191 242.301 C120.073 243.491 120.073 243.491 124.77 248.188 C124.395 250.813 124.395 250.813 123.77 253.188 C120.089 254.113 117.398 254.161 113.688 253.41 C112.756 253.226 111.825 253.043 110.865 252.854 C109.426 252.555 109.426 252.555 107.957 252.25 C106.978 252.055 105.999 251.859 104.99 251.658 C102.581 251.176 100.175 250.686 97.77 250.188 C96.12 265.113 96.12 265.113 101.582 278.375 C102.848 279.753 104.113 281.13 105.383 282.504 C108.248 285.982 110.362 289.967 112.582 293.875 C113.037 294.66 113.493 295.444 113.962 296.253 C121.77 309.912 121.77 309.912 121.77 314.188 C122.531 313.66 122.531 313.66 123.307 313.121 C137.98 302.965 152.344 293.286 168.77 286.188 C169.762 285.751 170.755 285.314 171.777 284.863 C178.904 281.97 186.267 280.426 193.645 283.312 C198.209 287.34 201.267 291.655 203.77 297.188 C205.125 296.293 206.479 295.397 207.832 294.5 C208.654 293.957 209.477 293.415 210.324 292.855 C212.441 291.412 214.441 289.89 216.457 288.312 C220.078 285.989 221.574 285.458 225.77 286.188 C229.973 288.045 231.721 290.129 233.77 294.188 C234.981 303.35 233.325 313.117 232.527 322.301 C232.397 323.843 232.267 325.385 232.138 326.927 C231.798 330.967 231.452 335.007 231.105 339.047 C230.759 343.084 230.419 347.121 230.078 351.158 C228.669 367.837 227.23 384.513 225.77 401.188 C226.707 401.481 227.645 401.774 228.612 402.076 C239.142 405.781 245.55 416.653 250.238 426.168 C257.647 442.817 257.847 461.804 252.77 479.188 C252.404 480.487 252.404 480.487 252.031 481.812 C250.171 487.314 247.172 491.49 243.617 495.996 C243.151 496.594 242.685 497.192 242.205 497.807 C241.064 499.271 239.917 500.729 238.77 502.188 C262.888 500.939 286.955 499.05 311.026 497.119 C314.408 496.847 317.79 496.578 321.172 496.309 C323.106 496.155 323.106 496.155 325.079 495.998 C333.462 495.341 341.841 494.798 350.24 494.418 C353.793 494.186 357.249 493.712 360.77 493.188 C365.056 492.768 369.35 492.453 373.645 492.125 C375.344 491.989 375.344 491.989 377.078 491.85 C396.117 490.383 396.117 490.383 401.77 495.188 C403.339 498.326 403.122 500.726 402.77 504.188 C400.159 507.348 397.945 509.887 393.771 510.464 C392.944 510.535 392.118 510.607 391.266 510.681 C390.315 510.765 389.365 510.849 388.385 510.935 C387.336 511.024 386.288 511.112 385.207 511.203 C384.101 511.299 382.996 511.395 381.857 511.494 C378.161 511.813 374.466 512.126 370.77 512.438 C368.864 512.6 368.864 512.6 366.92 512.766 C338.889 515.16 310.837 517.273 282.782 519.359 C268.241 520.444 253.706 521.603 239.176 522.82 C238.169 522.904 237.162 522.988 236.125 523.074 C234.159 523.238 232.193 523.405 230.227 523.574 C224.383 524.055 218.633 524.272 212.77 524.188 C212.804 525.473 212.804 525.473 212.84 526.785 C212.867 528.5 212.867 528.5 212.895 530.25 C212.918 531.375 212.941 532.501 212.965 533.66 C212.416 543.579 208.18 547.444 201.145 554.188 C200.267 555.051 199.389 555.915 198.484 556.805 C194.758 560.448 190.995 564.003 187.043 567.4 C182.242 571.582 177.779 576.071 173.301 580.594 C172.421 581.477 171.541 582.361 170.635 583.271 C167.844 586.074 165.056 588.88 162.27 591.688 C158.596 595.389 154.918 599.086 151.238 602.781 C150.408 603.62 149.577 604.459 148.722 605.323 C144.485 609.577 140.168 613.639 135.616 617.553 C132.701 620.133 130.036 622.931 127.355 625.75 C126.17 626.972 124.984 628.194 123.797 629.414 C121.972 631.295 120.152 633.179 118.349 635.081 C106.209 647.855 93.736 656.102 75.551 657.421 C66.793 657.588 59.461 656.141 51.145 653.5 C48.688 652.758 46.231 652.018 43.773 651.281 C42.583 650.92 41.392 650.559 40.165 650.188 C35.503 648.814 30.806 647.634 26.082 646.5 C20.174 645.068 14.337 643.514 8.52 641.75 C-0.431 639.04 -9.497 636.83 -18.574 634.59 C-24.803 633.052 -31.004 631.427 -37.195 629.741 C-39.56 629.098 -41.927 628.459 -44.293 627.82 C-53.438 625.344 -62.565 622.817 -71.668 620.188 C-83.917 616.659 -96.256 613.487 -108.604 610.323 C-133.144 604.033 -133.144 604.033 -143.2 600.961 C-146.87 599.847 -150.545 598.847 -154.273 597.945 C-155.558 597.629 -155.558 597.629 -156.869 597.307 C-158.514 596.907 -160.163 596.52 -161.814 596.15 C-167.146 594.845 -170.342 593.106 -174.23 589.188 C-175.211 586.246 -175.347 584.362 -175.328 581.301 C-175.325 580.363 -175.322 579.425 -175.318 578.459 C-175.31 577.483 -175.302 576.506 -175.293 575.5 C-175.288 574.512 -175.284 573.524 -175.279 572.506 C-175.268 570.066 -175.251 567.627 -175.23 565.188 C-176.677 565.428 -176.677 565.428 -178.153 565.673 C-182.594 566.303 -186.996 566.385 -191.477 566.426 C-192.357 566.435 -193.238 566.445 -194.145 566.455 C-196.986 566.479 -199.827 566.492 -202.668 566.5 C-203.631 566.504 -204.594 566.507 -205.587 566.511 C-220.79 566.534 -236.23 566.289 -250.881 561.667 C-254.182 560.993 -257.444 561.023 -260.799 561.038 C-261.547 561.04 -262.295 561.043 -263.066 561.045 C-271.789 561.128 -280.449 561.841 -289.137 562.578 C-290.93 562.725 -292.723 562.871 -294.517 563.016 C-298.3 563.324 -302.084 563.636 -305.867 563.951 C-314.79 564.693 -323.715 565.413 -332.64 566.134 C-334.625 566.295 -336.61 566.455 -338.595 566.616 C-355.571 567.992 -372.551 569.27 -389.543 570.438 C-390.67 570.515 -391.798 570.593 -392.959 570.673 C-399.363 571.114 -405.766 571.549 -412.17 571.981 C-420.214 572.524 -428.256 573.071 -436.299 573.625 C-438.897 573.803 -441.495 573.976 -444.093 574.149 C-451.952 574.682 -459.783 575.323 -467.617 576.148 C-476.771 577.104 -485.935 577.757 -495.117 578.369 C-505.657 579.073 -516.192 579.838 -526.727 580.625 C-528.447 580.753 -530.166 580.881 -531.886 581.009 C-538.909 581.533 -545.931 582.058 -552.953 582.583 C-558.169 582.973 -563.385 583.362 -568.602 583.75 C-569.444 583.813 -570.286 583.875 -571.153 583.94 C-579.822 584.585 -588.491 585.216 -597.165 585.785 C-597.861 585.831 -598.558 585.877 -599.276 585.924 C-602.493 586.134 -605.709 586.34 -608.926 586.541 C-614.732 586.912 -620.466 587.402 -626.23 588.188 C-635.949 588.956 -635.949 588.956 -640.355 586.312 C-643.236 583.048 -643.459 580.67 -643.852 576.355 C-642.83 572.789 -640.342 570.939 -637.23 569.188 C-634.31 568.335 -631.446 568.08 -628.418 567.875 C-627.186 567.768 -627.186 567.768 -625.928 567.659 C-617.7 567.008 -609.477 566.997 -601.23 567.188 C-601.56 566.528 -601.89 565.867 -602.23 565.188 C-602.51 560.36 -602.476 555.522 -602.48 550.688 C-602.481 549.982 -602.482 549.276 -602.483 548.549 C-602.466 537.514 -601.916 526.928 -599.23 516.188 C-598.973 515.135 -598.973 515.135 -598.71 514.061 C-592.956 491.209 -582.171 467.895 -562.23 454.188 C-551.868 448.555 -542.177 446.48 -530.605 449.438 C-519.552 452.774 -512.421 457.593 -506.527 467.59 C-502.006 476.647 -501.625 487.561 -504 497.363 C-505.524 501.171 -507.42 504.704 -509.384 508.3 C-510.692 510.697 -511.995 513.097 -513.293 515.5 C-513.733 516.311 -514.173 517.122 -514.626 517.957 C-518.441 525.178 -520.629 532.189 -522.23 540.188 C-522.424 540.998 -522.617 541.809 -522.816 542.645 C-523.355 545.955 -523.324 549.148 -523.293 552.5 C-523.284 553.754 -523.275 555.009 -523.266 556.301 C-523.254 557.253 -523.242 558.206 -523.23 559.188 C-512.41 559.478 -501.792 558.866 -491.014 557.899 C-485.39 557.401 -479.877 557.079 -474.23 557.188 C-474.371 556.269 -474.512 555.351 -474.657 554.405 C-475.938 545.557 -476.538 536.951 -476.531 527.996 C-476.536 526.69 -476.54 525.384 -476.544 524.039 C-476.552 521.288 -476.551 518.538 -476.546 515.787 C-476.542 513.039 -476.548 510.291 -476.567 507.543 C-476.737 481.859 -474.911 456.592 -470.48 431.25 C-470.355 430.514 -470.229 429.778 -470.1 429.02 C-463.05 387.817 -452.186 346.552 -436.289 307.832 C-434.645 303.726 -433.122 299.574 -431.6 295.422 C-416.762 255.369 -397.105 216.804 -375.23 180.188 C-374.645 179.202 -374.059 178.216 -373.456 177.201 C-371.701 174.254 -369.937 171.313 -368.168 168.375 C-367.592 167.414 -367.015 166.453 -366.422 165.463 C-363.718 161.019 -360.961 156.73 -357.777 152.613 C-347.863 139.673 -344.163 126.144 -340.149 110.632 C-338.288 103.653 -335.855 96.911 -333.23 90.188 C-332.906 89.355 -332.582 88.523 -332.248 87.666 C-309.81 30.592 -309.81 30.592 -289.547 18.188 C-284.61 16.056 -279.991 16.35 -274.914 17.891 C-265.579 21.722 -257.936 27.942 -250.918 35.062 C-250.185 35.801 -249.452 36.54 -248.698 37.302 C-238.432 47.859 -230.216 59.865 -222.23 72.188 C-221.575 71.977 -220.919 71.766 -220.244 71.548 C-201.744 65.665 -183.37 61.353 -164.23 58.188 C-163.356 58.041 -162.481 57.894 -161.58 57.742 C-137.753 53.943 -112.29 55.361 -88.492 58.531 C-86.738 58.751 -84.985 58.97 -83.23 59.188 C-82.095 59.334 -80.959 59.481 -79.789 59.633 C-76.99 59.399 -76.99 59.399 -74.879 56.836 C-74.129 55.756 -73.378 54.675 -72.605 53.562 C-71.734 52.356 -70.859 51.151 -69.98 49.949 C-69.529 49.325 -69.078 48.7 -68.613 48.056 C-57.811 33.458 -44.632 20.037 -30.293 8.938 C-29.62 8.413 -28.947 7.888 -28.253 7.347 C-19.959 1.138 -10.444 -3.804 0 0 Z M-37.23 40.188 C-38.534 41.431 -38.534 41.431 -39.863 42.699 C-46.819 49.449 -53.403 56.746 -58.23 65.188 C-57.096 65.806 -55.962 66.425 -54.793 67.062 C-51.355 68.938 -51.355 68.938 -50.23 71.188 C-50.148 74.284 -50.441 77.19 -51.23 80.188 C-53.355 82.312 -53.355 82.312 -56.23 83.188 C-58.597 82.93 -60.889 82.597 -63.23 82.188 C-64.411 81.983 -64.411 81.983 -65.615 81.775 C-67.394 81.463 -69.173 81.147 -70.952 80.829 C-75.049 80.1 -79.152 79.405 -83.254 78.706 C-85.877 78.249 -88.491 77.758 -91.105 77.258 C-133.527 69.641 -180.765 76.513 -220.793 91.523 C-223.818 92.348 -226.106 92.554 -229.23 92.188 C-233.955 89.378 -236.223 85.366 -238.918 80.75 C-248.932 64.232 -261.994 47.012 -278.23 36.188 C-281.371 35.88 -282.479 35.862 -285.23 37.188 C-303.539 54.51 -312.651 86.955 -320.418 110.312 C-320.812 111.496 -320.812 111.496 -321.213 112.704 C-324.739 123.344 -324.739 123.344 -327.906 134.094 C-330.68 144.09 -334.688 151.614 -340.688 160.07 C-345.007 166.192 -348.864 172.588 -352.73 179 C-353.096 179.606 -353.462 180.212 -353.839 180.836 C-366.128 201.214 -377.52 221.944 -388.23 243.188 C-388.724 244.164 -389.218 245.14 -389.726 246.146 C-404.303 275.191 -415.894 305.614 -426.562 336.275 C-427.176 338.032 -427.798 339.787 -428.42 341.542 C-437.484 367.097 -444.241 393.546 -449.23 420.188 C-449.447 421.335 -449.663 422.483 -449.886 423.665 C-453.105 440.864 -456.091 457.928 -456.89 475.432 C-457.022 478.255 -457.19 480.981 -457.735 483.757 C-458.413 488.455 -458.393 493.083 -458.398 497.824 C-458.402 498.858 -458.405 499.892 -458.409 500.958 C-458.414 503.149 -458.416 505.34 -458.416 507.531 C-458.418 510.819 -458.436 514.105 -458.455 517.393 C-458.488 530.126 -457.896 542.56 -456.23 555.188 C-445.703 555.37 -435.361 554.809 -424.875 553.98 C-423.217 553.854 -421.559 553.727 -419.902 553.601 C-415.516 553.267 -411.132 552.927 -406.747 552.585 C-399.508 552.023 -392.268 551.472 -385.028 550.92 C-382.354 550.716 -379.681 550.511 -377.007 550.306 C-367.328 549.565 -357.647 548.849 -347.961 548.191 C-346.957 548.123 -345.954 548.055 -344.92 547.985 C-340.569 547.691 -336.218 547.404 -331.866 547.126 C-322.266 546.496 -312.764 545.488 -303.23 544.188 C-304.018 543.565 -304.806 542.942 -305.617 542.301 C-309.449 539.202 -311.069 537.696 -311.605 532.688 C-311.23 529.187 -311.23 529.187 -310.293 526.75 C-307.626 524.73 -305.421 524.399 -302.109 524.543 C-297.678 525.535 -293.91 527.721 -289.936 529.84 C-256.761 547.195 -207.501 554.34 -171.23 545.188 C-170.256 544.983 -169.281 544.778 -168.277 544.566 C-154.686 541.44 -140.678 533.118 -132.73 521.5 C-131.857 520.086 -131.025 518.647 -130.23 517.188 C-129.696 516.286 -129.161 515.385 -128.609 514.457 C-126.883 510.363 -126.654 506.964 -126.668 502.562 C-126.67 501.77 -126.673 500.977 -126.675 500.161 C-126.904 492.786 -129.058 487.292 -133.23 481.188 C-133.687 480.503 -134.143 479.819 -134.613 479.113 C-144.348 466.291 -162.478 463.482 -177.23 460.312 C-195.863 456.297 -213.547 451.572 -230.23 442.188 C-231.159 441.685 -232.087 441.182 -233.043 440.664 C-242.23 435.468 -252.559 428.281 -258.23 419.188 C-258.98 415.5 -258.98 415.5 -258.23 412.188 C-255.805 408.835 -254.385 407.409 -250.293 406.625 C-244.112 407.76 -240.513 411.905 -236.23 416.188 C-225.612 425.965 -213.137 431.428 -199.605 436 C-198.784 436.278 -197.962 436.556 -197.116 436.842 C-192.094 438.462 -187.057 439.696 -181.893 440.784 C-180.017 441.181 -180.017 441.181 -178.103 441.585 C-177.155 441.784 -176.207 441.983 -175.23 442.188 C-175.21 441.485 -175.189 440.783 -175.168 440.06 C-174.968 433.299 -174.763 426.539 -174.552 419.778 C-174.443 416.306 -174.337 412.834 -174.236 409.362 C-173.81 394.825 -173.278 380.308 -172.285 365.797 C-172.211 364.67 -172.137 363.543 -172.06 362.382 C-170.871 346.169 -170.871 346.169 -167.523 340.086 C-164.411 337.509 -162.541 337.645 -158.543 337.812 C-156.681 337.863 -156.681 337.863 -154.781 337.914 C-151.826 338.142 -149.121 338.587 -146.23 339.188 C-142.359 339.644 -142.359 339.644 -140.668 337.719 C-139.68 336.323 -138.73 334.9 -137.812 333.457 C-133.145 326.761 -126.101 322.831 -118.23 321.188 C-113.369 320.815 -108.541 320.856 -103.668 320.938 C-102.307 320.952 -100.946 320.966 -99.584 320.979 C-95.799 321.024 -92.015 321.101 -88.23 321.188 C-87.405 321.203 -86.58 321.218 -85.73 321.234 C-55.499 321.931 -24.656 329.163 3.77 339.188 C4.593 339.477 5.416 339.767 6.265 340.065 C29.834 348.465 53.74 358.83 72.703 375.508 C74.757 377.38 74.757 377.38 77.77 378.188 C78.136 377.181 78.502 376.174 78.879 375.137 C84.87 359.328 93.408 345.074 105.004 332.73 C107.237 329.514 107.313 328.042 106.77 324.188 C105.93 321.653 105.053 319.354 103.957 316.938 C103.651 316.251 103.345 315.565 103.029 314.859 C97.52 302.94 90.285 291.774 82.328 281.352 C79.185 276.987 78.525 274.107 78.574 268.672 C78.581 267.421 78.587 266.171 78.594 264.883 C78.611 263.581 78.627 262.279 78.645 260.938 C78.654 259.62 78.663 258.303 78.672 256.945 C78.695 253.693 78.728 250.44 78.77 247.188 C78.199 247.102 77.629 247.016 77.041 246.928 C74.471 246.54 71.901 246.145 69.332 245.75 C67.985 245.548 67.985 245.548 66.611 245.342 C65.757 245.21 64.903 245.078 64.023 244.941 C63.233 244.821 62.442 244.701 61.627 244.576 C59.77 244.188 59.77 244.188 58.77 243.188 C58.729 241.521 58.727 239.854 58.77 238.188 C65.512 238.058 72.073 238.39 78.77 239.188 C78.797 237.604 78.816 236.021 78.832 234.438 C78.849 233.115 78.849 233.115 78.867 231.766 C78.848 228.918 78.848 228.918 77.77 225.188 C71.83 225.518 65.89 225.847 59.77 226.188 C59.44 224.868 59.11 223.548 58.77 222.188 C61.554 219.403 64.656 219.238 68.395 218.562 C69.101 218.428 69.807 218.294 70.535 218.156 C72.279 217.826 74.024 217.506 75.77 217.188 C75.628 215.416 75.481 213.646 75.332 211.875 C75.251 210.889 75.17 209.903 75.086 208.887 C74.851 206.094 74.851 206.094 73.77 203.188 C69.025 204.526 65.178 206.597 61.016 209.164 C58.43 210.342 56.579 210.375 53.77 210.188 C53.27 208 53.27 208 53.77 205.188 C56.185 203.094 58.959 201.687 61.77 200.188 C63.436 199.25 65.103 198.313 66.77 197.375 C68.102 196.644 69.435 195.914 70.77 195.188 C70.09 190.439 68.285 186.398 66.332 182.062 C65.979 181.278 65.627 180.493 65.263 179.684 C53.932 154.837 39.261 132.506 21.047 112.152 C15.787 105.305 14.775 97.964 13.332 89.625 C13.117 88.431 12.903 87.238 12.682 86.008 C11.676 80.406 10.702 74.8 9.734 69.191 C6.226 40.868 6.226 40.868 -7.23 17.188 C-17.249 17.188 -30.538 33.667 -37.23 40.188 Z " fill="#040404" transform="translate(665.23046875,104.8125)"/>
<path d="M0 0 C7.508 0.143 14.808 1.644 22.102 3.301 C23.675 3.649 23.675 3.649 25.28 4.004 C27.543 4.505 29.806 5.009 32.069 5.516 C38.248 6.9 44.433 8.262 50.617 9.625 C51.897 9.908 53.176 10.19 54.495 10.481 C66.408 13.106 78.345 15.607 90.288 18.092 C113.152 22.852 135.962 27.83 158.75 32.938 C160.181 33.258 161.612 33.578 163.043 33.899 C176.151 36.836 189.255 39.792 202.328 42.879 C203.626 43.183 203.626 43.183 204.95 43.494 C210.759 44.88 210.759 44.88 213 46 C213.219 61.143 212.536 76.142 211.562 91.25 C211.29 95.568 211.021 99.885 210.754 104.203 C210.688 105.259 210.622 106.315 210.554 107.403 C210.035 115.926 209.657 124.452 209.364 132.986 C209.181 137.957 208.84 142.85 208.247 147.788 C207.808 151.725 207.589 155.676 207.352 159.629 C207.295 160.552 207.238 161.475 207.179 162.426 C206.992 165.472 206.808 168.517 206.625 171.562 C206.561 172.616 206.496 173.669 206.43 174.755 C205.63 187.852 204.885 200.951 204.207 214.055 C204.11 215.923 204.11 215.923 204.011 217.828 C203.696 223.881 203.388 229.935 203.09 235.989 C202.464 248.389 201.578 260.682 200 273 C195.071 272.26 190.299 271.144 185.473 269.926 C184.655 269.721 183.838 269.517 182.995 269.306 C180.351 268.644 177.706 267.979 175.062 267.312 C173.239 266.855 171.415 266.397 169.591 265.939 C153.116 261.797 136.656 257.614 120.299 253.025 C100.559 247.504 80.702 242.384 60.885 237.146 C48.246 233.804 35.609 230.456 23 227 C17.77 225.567 12.54 224.134 7.293 222.762 C6.242 222.486 6.242 222.486 5.17 222.205 C3.316 221.721 1.461 221.241 -0.395 220.762 C-3 220 -3 220 -4 219 C-4.073 216.137 -4.092 213.299 -4.062 210.438 C-4.058 209.631 -4.053 208.825 -4.049 207.994 C-4.037 205.996 -4.019 203.998 -4 202 C-3.477 201.739 -2.954 201.478 -2.415 201.209 C12.194 193.968 12.194 193.968 25 184 C26.162 182.898 26.162 182.898 27.348 181.773 C38.247 170.601 43.429 157.199 43.364 141.75 C43.067 127.266 37.65 115.801 27.812 105.25 C19.433 97.337 9.802 93.24 -1.043 89.945 C-4 89 -4 89 -5 88 C-5.042 85.197 -5.019 82.422 -4.949 79.621 C-4.931 78.754 -4.913 77.887 -4.894 76.994 C-4.832 74.142 -4.76 71.29 -4.688 68.438 C-4.664 67.469 -4.641 66.501 -4.617 65.504 C-4.189 47.967 -3.328 30.493 -2 13 C-1.918 11.845 -1.835 10.69 -1.75 9.5 C-1.668 8.405 -1.585 7.311 -1.5 6.184 C-1.428 5.208 -1.356 4.233 -1.281 3.228 C-1 1 -1 1 0 0 Z " fill="#F9F9F9" transform="translate(513,463)"/>
<path d="M0 0 C0.195 5.462 -0.152 10.612 -0.883 16.031 C-2.06 25.073 -2.917 34.137 -3.744 43.217 C-4.005 46.056 -4.276 48.894 -4.548 51.732 C-5.312 59.771 -6.052 67.784 -6.352 75.855 C-6.932 90.503 -6.932 90.503 -10.062 94.891 C-12.604 96.92 -15.161 98.426 -18 100 C-28.919 109.514 -36.109 125.785 -38 140 C-39.034 156.536 -38.448 172.136 -29.27 186.473 C-27.178 189.021 -27.178 189.021 -24.769 190.452 C-18.394 194.626 -18.394 194.626 -17.25 198.615 C-17.091 201.723 -17.263 204.596 -17.625 207.688 C-17.738 208.765 -17.852 209.842 -17.969 210.951 C-19.102 218.667 -21.114 223.027 -27.269 227.746 C-28.503 228.649 -29.742 229.545 -30.986 230.435 C-34.945 233.512 -38.328 237.218 -41.812 240.812 C-45.677 244.755 -49.527 248.647 -53.73 252.23 C-59.638 257.317 -65.026 262.958 -70.5 268.5 C-83.074 281.229 -83.074 281.229 -89.377 286.6 C-91.51 288.44 -93.479 290.415 -95.438 292.438 C-96.607 293.643 -97.789 294.837 -99 296 C-99.33 296 -99.66 296 -100 296 C-99.613 278.531 -98.663 261.156 -97.368 243.734 C-96.044 225.884 -94.848 208.026 -93.664 190.166 C-93.445 186.862 -93.225 183.558 -93.005 180.254 C-91.967 164.647 -90.932 149.04 -89.923 133.431 C-89.629 128.886 -89.327 124.342 -89.008 119.799 C-88.949 118.955 -88.89 118.112 -88.829 117.243 C-88.713 115.594 -88.596 113.944 -88.479 112.294 C-88.132 107.264 -87.857 102.235 -87.627 97.198 C-87.467 93.837 -87.271 90.479 -87.067 87.121 C-86.983 85.574 -86.914 84.026 -86.864 82.478 C-86.485 70.926 -86.485 70.926 -82.809 66.159 C-80.308 63.877 -77.781 61.925 -75 60 C-73.472 58.78 -71.95 57.552 -70.438 56.312 C-69.62 55.668 -68.803 55.023 -67.961 54.359 C-64.126 51.303 -60.344 48.184 -56.562 45.062 C-55.082 43.841 -53.602 42.62 -52.121 41.398 C-51.415 40.815 -50.708 40.232 -49.98 39.632 C-45.664 36.075 -41.331 32.539 -37 29 C-36.158 28.31 -35.316 27.621 -34.449 26.91 C-1.602 0 -1.602 0 0 0 Z " fill="#F8F9F9" transform="translate(879,420)"/>
<path d="M0 0 C-0.243 4.991 -0.491 9.982 -0.745 14.972 C-0.829 16.658 -0.913 18.344 -0.995 20.03 C-1.472 29.86 -2.105 39.658 -2.992 49.461 C-3.888 59.363 -4.541 69.262 -5.09 79.188 C-6.445 103.51 -8.113 127.809 -9.804 152.109 C-9.997 154.891 -10.189 157.673 -10.38 160.456 C-12.027 184.325 -13.867 208.169 -16 232 C-22.773 234.917 -28.342 237.279 -35.875 237.125 C-37.027 237.107 -38.18 237.089 -39.367 237.07 C-40.236 237.047 -41.105 237.024 -42 237 C-42.25 227.109 -41.554 217.326 -40.833 207.471 C-39.749 192.633 -38.785 177.797 -38.062 162.938 C-37.193 145.171 -35.964 127.433 -34.731 109.689 C-33.605 93.451 -32.592 77.219 -31.83 60.959 C-30.963 42.609 -29.506 24.307 -28 6 C-26.99 5.81 -25.981 5.619 -24.941 5.423 C-23.592 5.162 -22.243 4.902 -20.895 4.641 C-19.901 4.454 -19.901 4.454 -18.887 4.264 C-13.7 3.252 -8.948 1.683 -4.074 -0.328 C-2 -1 -2 -1 0 0 Z " fill="#F7F7F7" transform="translate(774,505)"/>
<path d="M0 0 C4.527 2.684 6.793 6.442 8.438 11.375 C9.556 20.343 6.381 27.441 1.625 34.875 C-9.493 52.822 -12.027 72.704 -12.562 93.375 C-17.957 94.906 -23.558 95.019 -29.125 95.438 C-30.255 95.528 -31.385 95.619 -32.549 95.713 C-39.569 96.25 -46.522 96.495 -53.562 96.375 C-54.091 72.012 -53.916 50.933 -43.562 28.375 C-43.049 27.254 -42.536 26.132 -42.008 24.977 C-37.175 15.241 -29.568 4.454 -19.789 -0.918 C-13.405 -2.945 -6.135 -2.718 0 0 Z " fill="#F9F9F9" transform="translate(135.5625,573.625)"/>
<path d="M0 0 C9.941 10.523 13.631 23.188 13.379 37.43 C12.117 49.323 7.692 60.308 -0.812 68.812 C-6.221 72.524 -12.24 76.202 -19 75 C-24.973 72.44 -26.633 68.251 -29.02 62.559 C-33.729 50.27 -32.09 33.649 -26.813 21.788 C-22.267 12.177 -15.776 5.469 -6.922 -0.32 C-4.165 -1.295 -2.736 -1.016 0 0 Z " fill="#F7F7F7" transform="translate(890,526)"/>
<path d="M0 0 C1.249 -0.012 2.498 -0.023 3.784 -0.035 C5.143 -0.027 6.501 -0.017 7.859 -0.004 C8.909 0.002 8.909 0.002 9.979 0.007 C46.692 0.281 87.331 6.009 120.66 22.035 C122.998 23.144 125.338 24.189 127.715 25.207 C135.519 28.562 143.133 32.09 150.547 36.246 C151.215 36.619 151.883 36.992 152.571 37.376 C155.602 39.114 158.324 40.76 160.609 43.434 C154.091 42.681 147.844 41.081 141.484 39.496 C112.742 32.447 83.783 26.26 54.835 20.119 C49.092 18.899 43.351 17.665 37.609 16.434 C30.376 14.882 23.142 13.333 15.906 11.793 C14.643 11.524 13.38 11.254 12.078 10.977 C9.667 10.462 7.255 9.949 4.844 9.438 C-0.931 8.205 -6.673 6.912 -12.391 5.434 C-12.391 4.774 -12.391 4.114 -12.391 3.434 C-8.077 0.99 -4.948 0.044 0 0 Z " fill="#F4F4F5" transform="translate(555.390625,443.56640625)"/>
<path d="M0 0 C0.506 1.268 1.005 2.54 1.5 3.812 C1.778 4.52 2.057 5.228 2.344 5.957 C3 8 3 8 3 11 C1.375 12.586 1.375 12.586 -1 14.375 C-1.909 15.075 -2.818 15.775 -3.754 16.496 C-4.267 16.889 -4.78 17.282 -5.309 17.687 C-8.564 20.214 -11.745 22.833 -14.938 25.438 C-16.328 26.569 -17.719 27.701 -19.109 28.832 C-19.775 29.374 -20.441 29.916 -21.127 30.475 C-22.756 31.801 -24.385 33.125 -26.016 34.449 C-31.455 38.879 -36.827 43.381 -42.174 47.921 C-46.383 51.491 -50.636 55.003 -54.922 58.48 C-57.323 60.446 -59.704 62.428 -62.078 64.426 C-82.484 81.538 -82.484 81.538 -90 83 C-78.186 48.295 -49.184 21.986 -17 6 C-4.475 0 -4.475 0 0 0 Z " fill="#F6F5F6" transform="translate(850,406)"/>
<path d="M0 0 C4.072 2.026 7.07 4.528 9.5 8.375 C10.526 13.762 10.835 17.392 8.312 22.25 C5.194 25.958 1.837 29.59 -3.137 30.309 C-7.964 30.553 -11.17 30.457 -15 27.312 C-18.871 23.396 -20.069 20.072 -20.438 14.625 C-20.319 9.566 -18.479 6.566 -15 3 C-10.676 -0.83 -5.506 -1.036 0 0 Z " fill="#060606" transform="translate(522,315)"/>
<path d="M0 0 C5.358 1.921 8.458 4.917 11 10 C11.759 16.81 11.234 21.54 7 27 C3.106 29.743 -0.37 30.548 -5.047 30.352 C-10.526 29.365 -13.924 25.329 -17 21 C-18.897 17.206 -18.754 13.111 -18 9 C-13.252 1.356 -8.755 -0.812 0 0 Z " fill="#050505" transform="translate(661,291)"/>
<path d="M0 0 C16.917 0.148 33.806 3.356 50.333 6.729 C53.068 7.276 55.808 7.786 58.551 8.289 C60.367 8.63 62.184 8.971 64 9.312 C64.84 9.463 65.679 9.613 66.544 9.767 C70.699 10.567 73.776 11.226 76.938 14.25 C76.608 15.9 76.278 17.55 75.938 19.25 C72.129 20.236 69.53 20.174 65.723 19.246 C64.665 19.003 63.608 18.759 62.519 18.509 C61.358 18.238 60.196 17.967 59 17.688 C43.139 14.154 27.127 12.173 11.002 10.256 C10.02 10.136 9.038 10.016 8.027 9.893 C6.164 9.667 4.301 9.448 2.437 9.238 C1.608 9.137 0.78 9.036 -0.073 8.933 C-0.798 8.849 -1.524 8.765 -2.271 8.678 C-4.062 8.25 -4.062 8.25 -6.062 6.25 C-6.25 3.688 -6.25 3.688 -6.062 1.25 C-4.368 -0.445 -2.333 0.037 0 0 Z " fill="#0D0D0D" transform="translate(374.0625,338.75)"/>
<path d="M0 0 C0.99 0.99 0.99 0.99 2 2 C1.625 4.625 1.625 4.625 1 7 C-3.18 8.499 -7.182 9.47 -11.569 10.145 C-12.853 10.345 -14.138 10.545 -15.462 10.751 C-16.851 10.962 -18.24 11.173 -19.629 11.383 C-21.066 11.604 -22.502 11.825 -23.939 12.047 C-26.942 12.509 -29.945 12.968 -32.949 13.423 C-36.792 14.007 -40.634 14.598 -44.475 15.192 C-47.439 15.65 -50.403 16.103 -53.367 16.556 C-54.784 16.773 -56.201 16.99 -57.617 17.209 C-59.598 17.514 -61.579 17.814 -63.561 18.114 C-64.686 18.285 -65.812 18.457 -66.971 18.634 C-69.716 18.966 -72.244 19.224 -75 19 C-75.66 18.34 -76.32 17.68 -77 17 C-76.812 14.5 -76.812 14.5 -76 12 C-73.037 10.025 -71.71 9.606 -68.308 9.07 C-67.355 8.917 -66.403 8.763 -65.422 8.605 C-63.875 8.367 -63.875 8.367 -62.297 8.125 C-60.692 7.87 -60.692 7.87 -59.055 7.61 C-55.621 7.066 -52.185 6.533 -48.75 6 C-46.482 5.641 -44.213 5.282 -41.945 4.922 C-7.209 -0.565 -7.209 -0.565 0 0 Z " fill="#0E0E0E" transform="translate(447,370)"/>
<path d="M0 0 C1 1 1 1 1.302 3.379 C1 6 1 6 -0.597 7.59 C-1.337 8.035 -2.077 8.479 -2.84 8.938 C-4.079 9.695 -4.079 9.695 -5.343 10.469 C-6.22 10.974 -7.097 11.479 -8 12 C-8.829 12.485 -9.658 12.969 -10.512 13.469 C-13.182 15.004 -15.87 16.505 -18.562 18 C-27.13 22.798 -35.648 27.67 -44.125 32.625 C-45.138 33.217 -46.15 33.808 -47.194 34.418 C-52.46 37.483 -52.46 37.483 -57.632 40.701 C-60 42 -60 42 -62.812 41.688 C-63.534 41.461 -64.256 41.234 -65 41 C-65.33 39.35 -65.66 37.7 -66 36 C-61.104 32.103 -56.047 28.712 -50.688 25.5 C-49.801 24.967 -49.801 24.967 -48.896 24.424 C-44.304 21.701 -39.625 19.148 -34.933 16.602 C-29.927 13.868 -24.964 11.058 -20 8.25 C-18.978 7.674 -17.956 7.098 -16.902 6.504 C-15.924 5.951 -14.946 5.398 -13.938 4.828 C-13.06 4.332 -12.182 3.836 -11.277 3.325 C-5.002 -0.326 -5.002 -0.326 0 0 Z " fill="#090909" transform="translate(458,390)"/>
<path d="M0 0 C2.363 0.156 2.363 0.156 5 1 C6.73 3.031 6.73 3.031 8.188 5.5 C10.026 8.852 10.026 8.852 13 11 C15.958 11.417 15.958 11.417 19 11 C20.026 9.687 21.027 8.353 22 7 C24.562 6.625 24.562 6.625 27 7 C29 9 29 9 29.375 11.312 C28.875 14.897 27.5 16.43 25 19 C20.556 21.714 16.065 21.687 11 21 C8.663 19.903 7.037 18.629 5 17 C4.34 17 3.68 17 3 17 C2.278 17.928 1.556 18.856 0.812 19.812 C-2.038 23.309 -4.581 24.769 -9 26 C-14.186 26.268 -17.827 25.821 -22.125 22.812 C-24.295 19.557 -24.446 17.835 -24 14 C-21.75 13.312 -21.75 13.312 -19 13 C-18.381 13.495 -17.763 13.99 -17.125 14.5 C-14.957 16.329 -14.957 16.329 -11.5 16.062 C-7.858 15.293 -7.858 15.293 -5.75 12.438 C-3.838 8.681 -2.413 4.969 -1 1 C-0.67 0.67 -0.34 0.34 0 0 Z " fill="#080808" transform="translate(602,337)"/>
<path d="M0 0 C2.625 0.938 2.625 0.938 5 2 C3.188 2.625 3.188 2.625 1 3 C0.01 2.34 -0.98 1.68 -2 1 C-1.34 0.67 -0.68 0.34 0 0 Z " fill="#A7A6A7" transform="translate(711,484)"/>
</svg>